<!--?xml version="1.0" encoding="utf-8"?-->
<!-- Generator: Adobe Illustrator 22.1.0, SVG Export Plug-In . SVG Version: 6.00 Build 0)  -->
<svg version="1.1" id="_x35_" xmlns="http://www.w3.org/2000/svg" xmlns:xlink="http://www.w3.org/1999/xlink" x="0px" y="0px" viewBox="0 0 758.9 800" style="enable-background:new 0 0 758.9 800;" xml:space="preserve">
<style type="text/css">
	.st0{fill:#000;}
</style>
<g>
	<path class="st0" d="M3.8,702.8c31.5,5.6,295.1-29.1,480.2-164.2s263.5-287,217.4-400.8C649.5,9.5,453.4,25.8,385.1,84.5
		c-77.6,66.7-67.9,125-39.7,140.3c6.8,3.7,30.9,7.9,29.1-40.6c-2-53.9-54.8-89-100.5-101.5C228.2,70.1,94.6,85.8,65.4,230.2
		C39,360.5,176.2,502.7,335,586.1s403.7,92.4,403.7,92.4L709,705.8l15,41.1c0,0-230.2-19.1-424-135.8
		C106.3,494.6,24.4,348.3,34.6,248.1C45.9,136.1,114,85,168.1,64.4c59.6-22.7,127.1-12.2,176.6,33.5c33.7,31.1,48.8,66.2,46.3,94.6
		c-2.8,31.3-16.1,53.1-43,52.2c-26.9-0.9-41.7-35.4-34.6-76.6S376,42.5,477.5,14.4C600.8-19.7,699.8,32.3,742,136.1
		c41.7,102.6-19.4,239.2-134.3,362.1C492.9,621.1,187,759.2,15.7,796c6.3-15.3,20.6-50.2,20.6-50.2L3.8,702.8z" style="fill: rgb(255, 87, 87);"></path>
</g>
</svg>
