<svg width="262" height="213" viewBox="0 0 262 213" fill="none" xmlns="http://www.w3.org/2000/svg">
<path d="M191.548 212.831H69.9303C28.0937 212.831 0 184.737 0 142.901V69.9302C0 28.0937 28.0937 0 69.9303 0H191.548C233.385 0 261.478 28.0937 261.478 69.9302V142.901C261.478 184.737 233.385 212.831 191.548 212.831ZM69.9303 18.2427C38.5529 18.2427 18.2427 38.5528 18.2427 69.9302V142.901C18.2427 174.278 38.5529 194.589 69.9303 194.589H191.548C222.925 194.589 243.236 174.278 243.236 142.901V69.9302C243.236 38.5528 222.925 18.2427 191.548 18.2427H69.9303Z" fill="#515151"/>
<path d="M113.587 149.349C110.06 149.349 106.655 148.498 103.614 146.795C96.5603 142.782 92.4248 134.633 92.4248 124.539V88.5403C92.4248 78.4462 96.4387 70.298 103.614 66.2846C110.669 62.2712 119.789 63.0005 128.424 68.2301L158.464 86.2295C166.734 91.2159 171.476 98.6346 171.476 106.54C171.476 114.445 166.734 121.864 158.464 126.85L128.424 144.849C123.437 147.768 118.33 149.349 113.587 149.349ZM113.587 81.7299C113.101 81.7299 112.735 81.8514 112.492 81.973C111.64 82.4594 110.667 84.6485 110.667 88.4187V124.418C110.667 128.066 111.64 130.255 112.492 130.863C113.465 131.35 115.777 131.107 118.939 129.161L148.977 111.161C152.017 109.337 153.113 107.513 153.113 106.418C153.113 105.324 152.017 103.621 148.977 101.675L118.939 83.6756C116.749 82.3378 114.804 81.7299 113.587 81.7299Z" fill="#515151"/>
</svg>
