<svg xmlns="http://www.w3.org/2000/svg" xmlns:xlink="http://www.w3.org/1999/xlink" version="1.1" id="_x31_0" x="0px" y="0px" viewBox="0 0 512 512" style="width: 256px; height: 256px; opacity: 1;" xml:space="preserve">
<style type="text/css">
	.st0{fill:#374149;}
</style>
<g>
	<path class="st0" d="M480.953,147.648l-67.844-63.27c0.126-1.007,0.008-2.007,0.055-3.015c0.031-0.73,0.046-1.457,0.039-2.184   c-0.024-2.078-0.219-4.113-0.578-6.144c-0.102-0.586-0.219-1.168-0.348-1.746c-0.469-2.078-1.109-4.09-1.922-6.07   c-0.226-0.55-0.469-1.098-0.722-1.644c-0.871-1.864-1.887-3.645-3.066-5.375c-0.426-0.625-0.871-1.238-1.34-1.844   c-0.618-0.805-1.09-1.691-1.778-2.453c-9.031-9.977-22.32-14.454-35.566-11.965c-0.086,0.015-0.148,0.031-0.238,0.046   l-19.238-17.942c-36.148-33.71-92.98-31.73-126.691,4.422l-19.141,20.523c-6.793,2.359-12.875,6.645-17.508,12.547   c-3.222,4.137-5.535,8.754-6.874,13.598L26.628,237.656c-33.714,36.153-31.73,92.985,4.422,126.696l132.543,123.606   c36.148,33.71,92.98,31.73,126.695-4.422L485.374,274.34C519.086,238.191,517.102,181.359,480.953,147.648z M465.718,237.578   l-10.711,6.77l-0.011,0.011c-0.254,0.324-0.52,0.61-0.797,0.91l-29.387,31.512c-0.562,5.863-0.102,10.812-0.046,11.25   c0.332,4.172-1.348,8.215-4.508,10.875c-1.61,1.293-3.453,2.141-5.379,2.554c-0.137,0.031-0.274,0.047-0.41,0.074   c-1.902,0.344-3.871,0.282-5.766-0.266c-1.309-0.394-3.051-0.973-5.016-1.836L259.113,454.465   c-17.711,18.989-47.457,20.027-66.449,2.317L60.121,333.176c-18.989-17.707-20.028-47.458-2.321-66.446l133.602-143.262   c6.122,9.789,13.446,18.734,21.758,26.484c8.469,7.898,17.758,14.45,27.629,19.57c2.266-2.766,4.328-4.144,6.137-4.886   c0.531-0.23,1.027-0.402,1.511-0.531c1.692-0.454,3.395-0.45,5.024-0.078c0.121,0.027,0.246,0.039,0.367,0.07   c0.801,0.215,1.586,0.519,2.332,0.93c0.05,0.027,0.094,0.066,0.144,0.094c0.75,0.426,1.465,0.934,2.126,1.551   c0.652,0.606,1.718,1.602,2.832,3.71c0.996,1.798,2.004,4.414,2.805,8.27c1.445,0.402,2.878,0.766,4.324,1.094   c6.254-4.754,9.828-4.993,11.406-5.098l0.125-0.003c1.367,0.202,2.726,0.355,4.102,0.496c1.488,0.465,2.832,1.234,3.977,2.301   c1.258,1.175,2.496,2.766,3.238,5.277c2.454,0.078,4.914,0.066,7.375-0.019c9.09-0.317,17.961-1.707,26.527-4.066   c-0.121-3.023,0.102-5.633,0.328-7.488c0.035-0.379,0.086-0.719,0.141-1.035c0.524-3.297,2.36-6.227,5.016-8.192   c0.011-0.015,0.039-0.015,0.062-0.042c1.797-0.676,3.582-1.418,5.324-2.195c0,0,0,0,0.012-0.012c2.875-0.454,5.836,0.07,8.414,1.55   c0.641,0.383,1.332,0.786,2.102,1.188c2.266,1.21,5.074,2.496,8.09,3.562c15.515-9.321,28.961-22.262,39.48-37.786   c0.454-0.656,0.981-1.246,1.422-1.91l17.613,16.426c19.594-9.317,43.356-5.786,59.723,9.477c3.402,3.175,6.406,6.801,8.922,10.773   c7.711,12.172,10.278,26.61,7.238,40.676c-0.551,2.598-1.305,5.172-2.234,7.657c-1.019,2.812-2.309,5.574-3.813,8.152   C478.836,226.766,472.847,233.054,465.718,237.578z M216.675,73.113c4.426,0.512,8.922,0.95,13.454,1.325   c0.07,0.007,0.133,0.015,0.203,0.023c-0.078,0.629-0.157,1.285-0.223,1.93c-0.066,0.641-0.133,1.286-0.156,1.938   c-0.035,0.481-0.07,0.957-0.078,1.438c-0.023,0.363-0.035,0.742-0.035,1.133c-0.007,0.453-0.019,0.902-0.015,1.367   c0.004,0.078,0.008,0.152,0.008,0.226c-0.004,0.606,0.019,1.207,0.038,1.836c-0.007,0.062-0.004,0.164-0.004,0.238   c0.008,0.226,0.016,0.477,0.035,0.687c0.031,0.828,0.098,1.645,0.164,2.458c0.043,0.527,0.098,1.042,0.168,1.566   c0.094,0.89,0.199,1.766,0.356,2.64c0.05,0.438,0.117,0.863,0.207,1.286c0.031,0.175,0.062,0.351,0.094,0.523   c0.082,0.488,0.172,0.965,0.277,1.45c0.165,0.785,0.332,1.574,0.52,2.332c0.191,0.785,0.382,1.57,0.61,2.343   c0.218,0.782,0.445,1.555,0.699,2.325c0.21,0.683,0.422,1.343,0.66,2c0.07,0.21,0.152,0.41,0.21,0.609   c0.219,0.57,0.43,1.153,0.649,1.723c0.637,1.637,1.332,3.258,2.094,4.867c3.883,8.234,9.149,15.476,15.317,21.23   c1.445,1.347,3.019,2.441,4.554,3.613c0.898,0.73,1.707,1.469,2.645,2.215c-2.93,0.617-5.922,1.012-9.004,1.11   c-3.039,0.105-6.035-0.043-8.977-0.43c-1.738-1.234-3.43-2.542-5.086-3.894c-0.157-0.121-0.286-0.242-0.442-0.359   c-0.051-0.05-0.129-0.098-0.18-0.145c-0.246-0.206-0.492-0.437-0.738-0.64c-0.09-0.059-0.167-0.133-0.246-0.207   c-0.352-0.301-0.699-0.602-1.062-0.918c-0.778-0.675-1.543-1.367-2.309-2.082c-0.598-0.554-1.195-1.137-1.782-1.707   c-0.378-0.351-0.742-0.714-1.094-1.094c-0.496-0.485-0.988-0.973-1.461-1.481c-0.43-0.453-0.859-0.902-1.293-1.374   c-0.129-0.149-0.246-0.282-0.379-0.43c-0.328-0.374-0.664-0.742-1.004-1.133c-0.066-0.058-0.133-0.144-0.199-0.206   c-0.168-0.184-0.324-0.379-0.484-0.574c-0.379-0.426-0.758-0.875-1.125-1.317c-0.512-0.598-1.024-1.222-1.512-1.843   c-0.562-0.699-1.102-1.395-1.645-2.118c-0.222-0.281-0.445-0.586-0.66-0.882c-0.062-0.059-0.102-0.122-0.156-0.195   c-1.106-1.493-2.164-3.016-3.199-4.59c-0.414-0.625-0.825-1.226-1.211-1.878c-0.012-0.012-0.027-0.051-0.039-0.059   c-0.133-0.222-0.277-0.434-0.414-0.656c-0.493-0.774-0.969-1.558-1.426-2.348c-0.038-0.062-0.066-0.136-0.105-0.199   c-0.481-0.812-0.938-1.625-1.395-2.437c-0.148-0.286-0.308-0.582-0.457-0.864c-0.039-0.09-0.094-0.187-0.133-0.273   c-0.23-0.43-0.473-0.852-0.687-1.297c-0.215-0.418-0.43-0.84-0.649-1.282l-0.011-0.012c-0.203-0.382-0.406-0.793-0.582-1.199   c-0.351-0.691-0.68-1.41-1.004-2.129c-0.137-0.27-0.258-0.554-0.382-0.84c-0.356-0.793-0.707-1.582-1.039-2.402   c-0.286-0.656-0.574-1.335-0.836-2.019c-0.317-0.782-0.61-1.562-0.914-2.355c-1.539-4.129-0.859-8.5,1.86-11.965   C208.347,74.281,212.359,72.61,216.675,73.113z M381.382,69.293c0.649,0.406,1.289,0.836,1.867,1.375   c0.274,0.254,0.531,0.519,0.782,0.801c2.953,3.266,3.934,7.578,2.687,11.832c-0.316,1.043-0.633,2.058-0.961,3.09   c-0.203,0.633-0.434,1.27-0.649,1.894c-0.054,0.215-0.137,0.43-0.218,0.622c-0.215,0.625-0.434,1.222-0.664,1.836   c-0.035,0.113-0.078,0.238-0.125,0.343c-0.149,0.442-0.321,0.891-0.485,1.321c-0.082,0.168-0.137,0.332-0.207,0.511   c-0.347,0.867-0.706,1.746-1.078,2.59c-0.012,0.035-0.024,0.05-0.035,0.086c-0.234,0.539-0.454,1.062-0.699,1.586   c-0.254,0.586-0.524,1.161-0.794,1.762c-0.034,0.086-0.094,0.175-0.129,0.27c-0.011,0.011-0.011,0.034-0.023,0.046   c-0.27,0.578-0.523,1.141-0.809,1.703c-0.152,0.293-0.316,0.602-0.469,0.894c-0.175,0.371-0.367,0.73-0.554,1.086   c-0.27,0.55-0.554,1.062-0.836,1.574c-0.211,0.41-0.426,0.821-0.664,1.207c-0.351,0.664-0.73,1.309-1.11,1.95   c-0.074,0.129-0.144,0.254-0.214,0.382s-0.145,0.23-0.215,0.359c-0.355,0.59-0.711,1.18-1.082,1.786   c-0.141,0.23-0.286,0.461-0.438,0.679c-0.301,0.477-0.586,0.942-0.894,1.402c0,0.024-0.024,0.051-0.035,0.063   c-0.465,0.71-0.934,1.39-1.41,2.086c-0.481,0.695-0.946,1.379-1.438,2.035c-0.039,0.039-0.047,0.078-0.086,0.117l-0.047,0.051   c-0.254,0.351-0.504,0.699-0.77,1.035c-0.035,0.062-0.094,0.129-0.129,0.191c-0.254,0.348-0.492,0.684-0.758,0.996l-0.074,0.074   c-0.035,0.066-0.07,0.106-0.121,0.156c-0.383,0.516-0.766,1.008-1.176,1.5c-0.074,0.102-0.16,0.195-0.242,0.286   c-0.301,0.398-0.613,0.785-0.93,1.148c-4.027,4.844-8.484,9.258-13.25,13.195c-2.895,0.578-5.871,0.958-8.91,1.063   c-2.79,0.098-5.523-0.11-8.219-0.434c-0.281-0.055-0.562-0.074-0.843-0.141c8.843-6.958,16.054-16.867,20.59-28.481   c0.23-0.61,0.461-1.222,0.68-1.82c0.16-0.457,0.32-0.914,0.48-1.371c0.043-0.156,0.114-0.309,0.16-0.461   c0.031-0.114,0.078-0.242,0.114-0.356c0.156-0.48,0.293-0.941,0.442-1.41c0.246-0.813,0.48-1.637,0.691-2.461   c0.012-0.039,0.023-0.078,0.035-0.114c0.066-0.254,0.121-0.496,0.183-0.75c0.223-0.863,0.434-1.71,0.602-2.57   c0.102-0.469,0.196-0.938,0.282-1.395c0.117-0.617,0.218-1.226,0.324-1.832c0.157-0.949,0.286-1.894,0.402-2.855   c0.012-0.039,0.023-0.102,0.02-0.149c0-0.027,0.011-0.066,0.011-0.09c0.106-0.894,0.188-1.766,0.246-2.66   c0.011-0.039,0.023-0.078,0.008-0.114c0.082-0.945,0.137-1.89,0.164-2.832c0.011-0.453,0.019-0.906,0.027-1.359   c0.012-0.453,0.008-0.894,0.008-1.332c-0.004-0.074-0.008-0.125-0.008-0.176c-0.004-0.465-0.008-0.93-0.035-1.394   c-0.019-0.477-0.035-0.93-0.062-1.394c-0.004-0.074-0.004-0.149-0.02-0.211c-0.038-0.714-0.086-1.39-0.171-2.078   c-0.004-0.051-0.004-0.078-0.02-0.114c-0.008-0.301-0.031-0.566-0.078-0.828c-0.015-0.062-0.015-0.137-0.031-0.199   c-0.007-0.25-0.042-0.5-0.078-0.75c-0.066-0.55-0.137-1.102-0.23-1.652c-0.133-0.852-0.301-1.687-0.469-2.523   c4.562-0.723,9.098-1.473,13.531-2.317c1.938-0.363,3.843-0.274,5.621,0.23c0.012,0.004,0.027,0.004,0.043,0.008   c0.824,0.238,1.61,0.586,2.363,0.996C380.972,69.008,381.171,69.16,381.382,69.293z M354.836,88.324   c-0.582,5.649-1.989,11.402-4.168,17.02c-4.844,12.41-12.934,22.671-22.817,28.996c-7.726-2.129-14.859-5.965-21.047-11.129   c-6.031-5.039-14.828-4.719-20.484,0.714c-5.813,5.582-12.672,9.894-20.234,12.582c-10.297-5.645-19.094-15.305-24.782-27.36   c-5.102-10.781-7.121-22.258-5.93-32.832l1.246-1.336c5.418,0.395,11.058,0.516,16.621,0.738c0.926,0.035,1.832,0.09,2.766,0.122   c6.016,0.206,12.086,0.316,18.254,0.32c0.074,0,0.144,0.004,0.218,0.004c0.238,0,0.488-0.012,0.73-0.016   c6.523-0.004,13.008,0.047,19.68-0.187c14.847-0.504,29.324-1.574,43.305-3.156c5.347-0.602,10.613-1.274,15.816-2.035   C355.21,76.359,355.48,82.293,354.836,88.324z M293.976,49.805c-10.015,0.339-19.84,0.394-29.476,0.21   c-0.79-0.046-1.578-0.066-2.375-0.137c13.488-8.558,30.434-9.527,44.828-2.87c1.242,0.609,2.492,1.218,3.68,1.957   C305.148,49.328,299.598,49.621,293.976,49.805z" style="fill: rgb(251, 113, 14);"/>
	<path class="st0" d="M327.175,81.445c-1.382,0.391-2.199,1.836-1.808,3.219c1.187,4.218,0.82,9.121-1.004,13.809   c-1.832,4.699-4.891,8.55-8.618,10.855c-0.266,0.164-0.32,0.469-0.504,0.703c-0.054,0.066-0.106,0.133-0.148,0.207   c-0.524,0.82-0.734,1.801-0.192,2.675c0.133,0.196,0.278,0.379,0.446,0.539c0.832,0.774,2.121,0.93,3.141,0.305   c4.676-2.902,8.48-7.66,10.718-13.394c2.238-5.734,2.653-11.805,1.176-17.094C329.992,81.886,328.554,81.058,327.175,81.445z" style="fill: rgb(251, 113, 14);"/>
	<path class="st0" d="M267.066,100.484c-2.145-4.55-2.84-9.426-1.973-13.718c0.301-1.418-0.614-2.782-2.016-3.07   c-1.406-0.289-2.781,0.614-3.074,2.016c-1.105,5.406-0.266,11.434,2.367,16.996c1.614,3.426,3.817,6.453,6.402,8.863   c1.598,1.492,3.352,2.762,5.207,3.738c0.336,0.175,0.687,0.07,1.043,0.094c0.054,0.004,0.11,0.043,0.168,0.043   c0.027,0,0.046-0.02,0.074-0.02c0.441-0.015,0.789-0.102,1.168-0.324c0.031-0.02,0.05-0.047,0.082-0.07   c0.363-0.23,0.77-0.406,0.985-0.813c0.671-1.266,0.191-2.832-1.09-3.515C272.531,108.664,269.222,105.019,267.066,100.484z" style="fill: rgb(251, 113, 14);"/>
	<path class="st0" d="M466.621,159.449c-0.137-0.129-0.278-0.254-0.418-0.382c-4.016-3.719-8.566-6.61-13.481-8.618   c-0.141-0.058-0.274-0.121-0.414-0.179c-1.644-0.653-3.308-1.188-5.011-1.641c-0.145-0.039-0.293-0.074-0.442-0.11   c-8.554-2.183-17.668-1.98-26.176,1.207c-2.777,1.027-5.484,2.363-8.078,4l-32.462,20.562c-11.961,7.566-28.137,1.394-36.206-2.609   c-1.969-0.985-3.458-1.84-4.266-2.325c-0.922-0.546-2.02-0.598-2.973-0.175c-0.938,0.461-1.61,1.339-1.774,2.402   c-0.156,0.973-0.332,2.36-0.402,4.02c-0.176,4.645,0.453,11.496,4.442,17.766c1.374,2.18,3.148,4.062,5.125,5.785   c0.539,0.52,1.023,1.051,1.598,1.555c-4.371,0.175-9.481-0.223-11.91-0.446c-1.16-0.114-2.285,0.442-2.93,1.394   c-0.644,0.977-0.691,2.223-0.152,3.262c0.363,0.653,0.762,1.317,1.191,2.004c2.078,3.29,6.086,8.141,12.145,11.59   c1.195,0.726,2.371,1.465,3.742,2.058c-4.898,0.922-10.113,1.586-12.633,1.898c-1.098,0.141-2.019,0.813-2.472,1.797   c-0.469,0.969-0.418,2.137,0.168,3.047l0.054,0.098l0.145,0.183c2.71,3.375,12.042,13.266,26.21,12.29   c0.406,0.003,0.828,0.015,1.27,0.046c-3.942,6.386-4.582,12.898-4.004,18.324c-2.492,0.25-5.558,0.985-9.195,2.254   c-3.031,1.035-6.578,2.566-10.375,4.351c-1.175,0.512-2.262,0.969-3.519,1.527c3.762-8.98,5.836-16.117,6.434-21.238   c1.082-9.336-2.718-12.032-10.149-7.321c-0.527,0.332-1.066,0.703-1.629,1.125c-0.664,2.86-2.621,6.618-9.355,11.126   c-1,0.637-2.098,1.289-3.32,1.953c0.031,0.016,0.05,0.031,0.086,0.047c-0.058,0.035-0.102,0.066-0.156,0.098   c4.078,1.98,7.25,4.019,9.484,6.106c6.082,5.668,4.762,11.14,3.918,13.246c-1.278,3.145-4.223,6.954-14.086,9.043   c-0.008,0-0.015,0-0.023,0.004c-1.062,0.226-2.238,0.422-3.469,0.606c-1.551,0.214-3.137,0.422-4.977,0.554   c-0.086,0.008-0.168,0.016-0.254,0.023c-2.422,0.168-5.098,0.262-8.062,0.262c-0.454,0-0.91-0.003-1.371-0.003l0.121,0.109   c-0.082,0.004-0.148,0.008-0.23,0.008l52.426,48.886c34.934,0.574,39.223-9.839,11.348-20.086c-2.344-0.898-4.824-1.793-7.57-2.68   c16.485-6.32,24.629-12.347,24.73-16.633c0.062-2.152-1.945-3.878-5.992-4.957c-4.418-1.183-11.41-1.55-20.645-0.965   c-1.094,0.031-2.144,0.062-3.32,0.09c2.816-2.668,5.293-5.168,7.386-7.492c2.356-2.602,4.215-4.973,5.688-7.121   c0.054-0.07,0.117-0.145,0.172-0.215c0.582,0.516,1.343,0.813,2.133,0.797c1.094,0,2.09-0.546,2.699-1.488   c1.09-1.73,3.183-4.985,5.5-8.32c0.562-0.754,1.136-1.504,1.734-2.238c-0.594,8.918,2.934,16.218,5.43,20.16   c0.41,0.676,0.863,1.313,1.308,1.926c0.688,0.93,1.848,1.43,2.985,1.254c1.152-0.168,2.129-0.958,2.531-2.039   c0.672-1.867,2.008-5.36,3.566-8.688c0.398-0.766,0.801-1.527,1.234-2.258c0.668,3.344,1.879,6.414,3.633,9.195   c5.066,8.004,13.282,11.461,17.262,12.742c0.266,0.082,0.508,0.16,0.734,0.226c1.016,0.293,2.102,0.066,2.906-0.59   c0.797-0.672,1.211-1.691,1.137-2.758c-0.039-0.45-0.098-1.063-0.153-1.84c-0.484-7.398-0.511-28.332,12.977-36.86l32.461-20.558   c1.473-0.934,2.871-1.961,4.215-3.062c4.008-3.281,7.347-7.281,9.93-11.82c1.218-2.118,2.285-4.379,3.133-6.719   c0.77-2.05,1.398-4.183,1.875-6.39c2.511-11.621,0.382-23.586-6-33.645C471.777,164.742,469.285,161.98,466.621,159.449z    M391.218,206.086l4.426-2.793c1.719-1.09,4-0.594,5.106,1.141l9.016,14.238c1.09,1.746,0.578,4.011-1.157,5.117l-4.426,2.794   c-1.73,1.101-4,0.59-5.102-1.145l-9.019-14.234C388.961,209.469,389.484,207.187,391.218,206.086z M421.832,187.762   c-3.195,2.41-7.27,2.379-9.126-0.058c-1.832-2.461-0.762-6.371,2.418-8.793c3.172-2.387,7.258-2.363,9.102,0.109   C426.07,181.446,424.988,185.367,421.832,187.762z M439.258,205.875c1.547,0.312,2.851,1.125,3.535,2.43   c0.363,0.679,0.515,1.453,0.48,2.222c-0.046,2.262-1.683,4.668-4.289,6.055c-1.738,0.906-3.582,1.179-5.183,0.918   c-0.082-0.012-0.157-0.039-0.238-0.054c-1.551-0.313-2.859-1.13-3.555-2.434c-1.007-1.887-0.472-4.23,1.122-6.098   c0.71-0.84,1.629-1.59,2.71-2.18c1.734-0.898,3.574-1.172,5.176-0.914C439.098,205.836,439.175,205.859,439.258,205.875z    M447.98,159.305c2.328,0.609,4.234,1.855,5.481,3.375c0.035,0.042,0.078,0.078,0.11,0.121c1.222,1.55,1.754,3.379,1.285,5.121   c-0.934,3.527-5.519,5.371-10.222,4.141c-3.782-1-6.5-3.656-6.965-6.492c-0.137-0.711-0.114-1.442,0.09-2.153   C438.691,159.89,443.266,158.062,447.98,159.305z" style="fill: rgb(251, 113, 14);"/>
	<path class="st0" d="M176.964,301.817c-11.847,12.706-11.152,32.613,1.551,44.457c12.703,11.847,32.614,11.152,44.457-1.551   c11.848-12.703,11.141-32.598-1.562-44.441C208.706,288.434,188.812,289.114,176.964,301.817z M190.636,309.297   c1.778-4.438,8.692-5.809,15.462-3.094c6.754,2.707,10.801,8.496,9.019,12.906c-1.766,4.422-8.695,5.809-15.45,3.102   C192.902,319.496,188.866,313.718,190.636,309.297z" style="fill: rgb(251, 113, 14);"/>
	<path class="st0" d="M267.633,250.977l25.769,24.031c24.707,0.406,33.778-4.809,26.566-11.531   c-2.906-2.711-8.594-5.653-16.832-8.574c-1.91-0.715-3.87-1.434-6.038-2.153c6.683-2.55,11.972-5.074,15.878-7.43   c7.692-4.652,10.012-8.73,7.102-11.445c-1.558-1.454-4.625-2.512-9.179-3.047c-3.305-0.41-7.418-0.531-12.313-0.336   c-1.535,0.062-3.234,0.191-4.922,0.321c-0.199,0-0.36,0.015-0.555,0.015c-0.371,0-0.75-0.004-1.129-0.015   c14.074-13.286,18.793-22.422,15.297-25.68c-2.906-2.711-11.508-1.332-25,4.977c-1.285,0.574-2.511,1.086-3.878,1.734   c6.769-16.242,7.93-26.25,4.758-29.207c-0.222-0.207-0.469-0.387-0.734-0.516c-0.422-0.214-1.008-0.14-1.531-0.183   c-0.09-0.004-0.16-0.055-0.254-0.055c-0.038,0-0.086,0.008-0.129,0.012c-0.277,0-0.476-0.145-0.774-0.094   c-3.773,0.594-9.527,4.813-16.758,12.809c-1.449,1.558-2.934,3.203-4.484,5.015c0.179-10.914-0.742-18.77-2.446-23.469   c-0.695-1.988-1.523-3.414-2.461-4.289c-1.726-1.61-3.817-1.324-6.102,0.867c-2.758,2.648-5.785,8.203-8.793,16.477   c-0.821,2.148-1.641,4.437-2.458,6.902c-4.363-11.414-8.59-18.734-12.168-22.07c-7.195-6.711-11.766,2.695-9.652,27.305   L267.633,250.977z" style="fill: rgb(251, 113, 14);"/>
	
		<rect x="122.223" y="252.527" transform="matrix(-0.7313 -0.682 0.682 -0.7313 262.3145 620.8157)" class="st0" width="262.419" height="12.432" style="fill: rgb(251, 113, 14);"/>
	<path class="st0" d="M257.586,303.782c-1.426-0.164-3.867,1.199-4.133,3.648c-0.266,2.446,1.117,5,3.16,5.23   c2.031,0.219,3.93-1.973,4.207-4.434C261.086,305.782,258.999,303.93,257.586,303.782z" style="fill: rgb(251, 113, 14);"/>
	<path class="st0" d="M248.113,347.715c-2.336,0.785-4.05,3.121-3.406,5.058c0.672,1.938,3.45,2.734,5.786,1.946   c2.336-0.782,3.133-3.462,2.683-4.805C252.714,348.562,250.457,346.918,248.113,347.715z" style="fill: rgb(251, 113, 14);"/>
	<path class="st0" d="M155.335,366.523c-2.347,0.797-4.078,3.122-3.406,5.059c0.644,1.938,3.437,2.746,5.773,1.961   c2.321-0.797,3.133-3.465,2.672-4.821C159.914,367.371,157.667,365.738,155.335,366.523z" style="fill: rgb(251, 113, 14);"/>
	<path class="st0" d="M137.273,303.051c-1.414-0.126-3.812,1.304-4.015,3.762c-0.203,2.457,1.242,4.969,3.297,5.137   c2.027,0.168,3.871-2.07,4.074-4.528C140.831,304.965,138.71,303.18,137.273,303.051z" style="fill: rgb(251, 113, 14);"/>
	<path class="st0" d="M210.664,382.738c-1.422-0.114-3.825,1.293-4.028,3.75c-0.203,2.458,1.242,4.969,3.286,5.149   c2.027,0.168,3.886-2.058,4.09-4.516C214.214,384.664,212.09,382.852,210.664,382.738z" style="fill: rgb(251, 113, 14);"/>
	<path class="st0" d="M201.914,261.55c2.027,0.168,3.886-2.058,4.09-4.515c0.203-2.457-1.922-4.27-3.347-4.383   c-1.422-0.113-3.825,1.317-4.039,3.762C198.414,258.871,199.882,261.383,201.914,261.55z" style="fill: rgb(251, 113, 14);"/>
</g>
</svg>