<!--?xml version="1.0" encoding="utf-8"?-->
<!-- Generator: Adobe Illustrator 19.1.1, SVG Export Plug-In . SVG Version: 6.00 Build 0)  -->
<svg version="1.1" id="_x31_0" xmlns="http://www.w3.org/2000/svg" xmlns:xlink="http://www.w3.org/1999/xlink" x="0px" y="0px" viewBox="0 0 512 512" style="width: 256px; height: 256px; opacity: 1;" xml:space="preserve">
<style type="text/css">
	.st0{fill:#374149;}
</style>
<g>
	<path class="st0" d="M486.77,291.563c0.523-0.622,1.086-1.211,1.598-1.844c1.008-1.258,1.926-2.578,2.879-3.879
		c0.828-1.137,1.699-2.238,2.484-3.406c0.39-0.578,0.726-1.191,1.106-1.781C505.656,263.914,512,244.012,512,222.594
		c0-59.215-48.004-107.215-107.218-107.215c-13.078,0-25.551,2.465-37.137,6.75c-1.622,0.578-3.258,1.074-4.86,1.726
		c0.266-3.086,0.434-6.199,0.434-9.356C363.218,55.285,315.215,7.281,256,7.281c-59.215,0-107.218,48.004-107.218,107.218
		c0,2.25,0.164,4.458,0.308,6.668c0.027,0.914,0.047,1.801,0.062,2.734c-12.882-5.48-27.054-8.523-41.934-8.523
		C48.004,115.379,0,163.379,0,222.594c0,21.183,6.215,40.878,16.817,57.504c0.507,0.8,0.972,1.633,1.503,2.422
		c0.547,0.809,1.157,1.566,1.723,2.359c1.203,1.687,2.398,3.371,3.695,4.985c0.015,0.015,0.027,0.031,0.043,0.046
		c14.613,18.149,35.183,31.539,59.402,37.234C66.785,345.98,56.832,370.57,56.832,397.5c0,59.215,48,107.219,107.215,107.219
		c23.953,0,46.042-7.879,63.89-21.156c0.129-0.098,0.266-0.184,0.394-0.282c1.531-1.149,3.012-2.351,4.477-3.578
		c0.308-0.258,0.629-0.496,0.934-0.758c1.312-1.125,2.574-2.301,3.828-3.484c0.426-0.398,0.867-0.778,1.285-1.184
		c1.078-1.05,2.102-2.148,3.137-3.242c0.562-0.598,1.145-1.168,1.699-1.781c0.688-0.762,1.328-1.558,1.992-2.34
		c3.766-4.41,7.254-9.125,10.36-14.199c18.754,31.156,52.894,52.004,91.91,52.004c59.215,0,107.215-48.004,107.215-107.219
		c0-24.367-8.203-46.777-21.902-64.781c-1.43-1.914-2.863-3.824-4.426-5.653c15.035-3.449,28.851-10.066,40.738-19.094
		c0.808-0.613,1.554-1.289,2.343-1.922c1.454-1.168,2.922-2.313,4.313-3.554c1.582-1.414,3.078-2.918,4.57-4.418
		c0.562-0.566,1.16-1.09,1.707-1.668C483.996,294.852,485.383,293.207,486.77,291.563z M285.848,265.383l-15.219,4.89l0.031,0.043
		l-0.16,0.05l40.035,55.11c1.614-0.363,3.274-0.59,4.992-0.59c12.539,0,22.707,10.164,22.707,22.707
		c0,12.538-10.168,22.706-22.707,22.706c-12.539,0-22.707-10.168-22.707-22.706c0-0.825,0.086-1.622,0.176-2.418
		c0.047-0.43,0.102-0.855,0.176-1.281c0.246-1.414,0.637-2.774,1.137-4.086c0.324-0.836,0.664-1.668,1.098-2.465
		c0.222-0.43,0.418-0.871,0.66-1.285l-40.054-55.137l-40.078,55.141c0.402,0.683,0.75,1.398,1.09,2.121
		c0.172,0.371,0.332,0.746,0.485,1.121c0.598,1.473,1.046,3.012,1.324,4.622c0.07,0.406,0.125,0.816,0.168,1.23
		c0.094,0.801,0.176,1.606,0.176,2.438c0,12.538-10.164,22.706-22.703,22.706c-12.543,0-22.711-10.168-22.711-22.706
		c0-12.543,10.168-22.707,22.711-22.707c1.718,0,3.382,0.226,4.992,0.59l30.465-41.91l9.527-13.027l-0.05-0.015l0.102-0.137
		l-64.852-21.078c-4.16,4.723-10.183,7.766-16.973,7.766c-12.542,0-22.706-10.168-22.706-22.707
		c0-12.542,10.164-22.706,22.706-22.706c11.817,0,21.41,9.058,22.493,20.594l49.398,16.054l15.312,5.031v-0.054l0.161,0.054v-68.078
		c-8.078-3.477-13.742-11.5-13.742-20.856c0-12.542,10.168-22.707,22.707-22.707c12.542,0,22.706,10.165,22.706,22.707
		c0,9.356-5.664,17.379-13.746,20.856v51.914l-0.047,15.985l0.047-0.016v0.172l64.851-21.066
		c1.082-11.531,10.676-20.59,22.493-20.59c12.538,0,22.706,10.164,22.706,22.706c0,12.539-10.168,22.707-22.706,22.707
		c-6.79,0-12.817-3.042-16.977-7.77L285.848,265.383z" style="fill: rgb(231, 85, 106);"></path>
</g>
</svg>
